<?xml version="1.0" encoding="utf-8"?>
<!-- Generator: Adobe Illustrator 25.4.1, SVG Export Plug-In . SVG Version: 6.00 Build 0)  -->
<svg version="1.1" xmlns="http://www.w3.org/2000/svg" xmlns:xlink="http://www.w3.org/1999/xlink" x="0px" y="0px"
	 viewBox="0 0 1200 1200" style="enable-background:new 0 0 1200 1200;" xml:space="preserve">
<style type="text/css">
	.st0{display:none;}
	.st1{fill:#FFFFFF;}
</style>
<g id="Layer_2" class="st0">
</g>
<g id="Layer_1">
	<g>
		<rect x="328.6" y="843.7" width="108.9" height="27.7"/>
		<rect x="472.6" y="843.7" width="214.2" height="27.7"/>
		<rect x="725.5" y="843.7" width="247.4" height="27.7"/>
		<rect x="806.8" y="611.1" width="27.7" height="27.7"/>
		<rect x="478.1" y="611.1" width="289.9" height="27.7"/>
		<rect x="328.6" y="611.1" width="112.6" height="27.7"/>
		<rect x="871.4" y="611.1" width="101.5" height="27.7"/>
		<rect x="328.6" y="494.8" width="149.5" height="27.7"/>
		<rect x="760.6" y="494.8" width="210.5" height="27.7"/>
		<rect x="511.4" y="494.8" width="27.7" height="27.7"/>
		<rect x="688.6" y="494.8" width="27.7" height="27.7"/>
		<rect x="570.5" y="494.8" width="27.7" height="27.7"/>
		<rect x="629.5" y="494.8" width="27.7" height="27.7"/>
		<rect x="790.2" y="727.4" width="86.8" height="27.7"/>
		<rect x="913.8" y="727.4" width="59.1" height="27.7"/>
		<rect x="328.6" y="727.4" width="243.7" height="27.7"/>
		<rect x="672" y="727.4" width="27.7" height="27.7"/>
		<rect x="612.9" y="727.4" width="27.7" height="27.7"/>
		<rect x="731.1" y="727.4" width="27.7" height="27.7"/>
		<polygon points="862.1,275.1 749.5,354.5 734.8,330.4 816,273.2 734.8,216 751.3,193.9 		"/>
		<polygon points="465.3,271.4 546.5,330.5 529.8,352.6 419,271.4 529.8,192 546.5,214.2 		"/>
		<rect x="487.7" y="258.2" transform="matrix(0.4491 -0.8935 0.8935 0.4491 109.6013 721.7468)" width="304.6" height="27.6"/>
		<path d="M1203.7,1002.5v-12.9h-120V169.9c0-68.3-55.4-123.7-123.7-125.5H121.8C51.7,44.3-3.7,101.6-3.7,169.9v42.5h223.4V1032
			c0,70.2,57.2,125.5,125.5,125.5h751.3c62.8,0,108.9-49.8,108.9-116.3C1205.5,1030.2,1203.7,1002.5,1203.7,1002.5z M219.6,182.8H24
			V168c0-53.5,44.3-97.8,97.8-97.8s97.8,44.3,97.8,97.8V182.8z M345.2,1129.9c-53.5,0-97.8-44.3-97.8-97.8V168
			c0-40.6-18.5-75.7-48-97.8h758.8c53.5,0,97.8,44.3,97.8,97.8v819.7H456l-20.3,3.7l3.7,14.8c1.8,7.4,3.7,18.5,3.7,25.8
			C443.1,1085.6,398.8,1129.9,345.2,1129.9z M1094.8,1129.9h-672c29.5-22.2,48-59.1,48-97.8c0-3.7,0-9.2-1.8-14.8h707v25.8
			C1177.8,1093,1142.8,1129.9,1094.8,1129.9z"/>
		<path class="st1" d="M1094.8,1129.9h-672c29.5-22.2,48-59.1,48-97.8c0-3.7,0-9.2-1.8-14.8h707v25.8
			C1177.8,1093,1142.8,1129.9,1094.8,1129.9z"/>
		<path class="st1" d="M958.2,70.2H199.4c29.5,22.1,48,57.2,48,97.8v864.1c0,53.5,44.3,97.8,97.8,97.8c53.6,0,97.9-44.3,97.9-97.9
			c0-7.3-1.9-18.4-3.7-25.8l-3.7-14.8l20.3-3.7h600V168C1056,114.5,1011.7,70.2,958.2,70.2z M971.1,494.8v27.7H760.6v-27.7H971.1z
			 M834.5,638.8h-27.7v-27.7h27.7V638.8z M877,727.4v27.7h-86.8v-27.7H877z M478.1,638.8v-27.7H768v27.7H478.1z M758.8,727.4v27.7
			h-27.7v-27.7H758.8z M640.6,727.4v27.7h-27.7v-27.7H640.6z M511.4,522.5v-27.7h27.7v27.7H511.4z M570.5,522.5v-27.7h27.7v27.7
			H570.5z M629.5,522.5v-27.7h27.7v27.7H629.5z M688.6,522.5v-27.7h27.7v27.7H688.6z M734.8,216l16.5-22.1l110.8,81.2l-112.6,79.4
			l-14.7-24.1l81.2-57.2L734.8,216z M696.1,129.7l24.7,12.4L584,414.3l-24.7-12.4L696.1,129.7z M529.8,192l16.7,22.2l-81.2,57.2
			l81.2,59.1l-16.7,22.1L419,271.4L529.8,192z M328.6,494.8h149.5v27.7H328.6V494.8z M328.6,611.1h112.6v27.7H328.6V611.1z
			 M437.5,871.4H328.6v-27.7h108.9V871.4z M328.6,755.1v-27.7h243.7v27.7H328.6z M686.8,871.4H472.6v-27.7h214.2V871.4z
			 M699.7,755.1H672v-27.7h27.7V755.1z M972.9,871.4H725.5v-27.7h247.4V871.4z M972.9,755.1h-59.1v-27.7h59.1V755.1z M972.9,638.8
			H871.4v-27.7h101.5V638.8z"/>
		<path class="st1" d="M219.6,168v14.8H24V168c0-53.5,44.3-97.8,97.8-97.8S219.6,114.5,219.6,168z"/>
	</g>
</g>
</svg>
