<?xml version="1.0" encoding="utf-8"?>
<!-- Generator: Adobe Illustrator 25.4.1, SVG Export Plug-In . SVG Version: 6.00 Build 0)  -->
<svg version="1.1" id="Layer_1" xmlns="http://www.w3.org/2000/svg" xmlns:xlink="http://www.w3.org/1999/xlink" x="0px" y="0px"
	 viewBox="0 0 1200 1200" style="enable-background:new 0 0 1200 1200;" xml:space="preserve">
<g>
	<path d="M328.6,843.7h108.9v27.7H328.6V843.7z"/>
	<path d="M472.6,843.7h214.2v27.7H472.6V843.7z"/>
	<path d="M725.5,843.7h247.4v27.7H725.5V843.7z"/>
	<path d="M806.8,611.1h27.7v27.7h-27.7V611.1z"/>
	<path d="M478.1,611.1H768v27.7H478.1V611.1z"/>
	<path d="M328.6,611.1h112.6v27.7H328.6V611.1z"/>
	<path d="M871.4,611.1h101.5v27.7H871.4V611.1z"/>
	<path d="M328.6,494.8h149.5v27.7H328.6V494.8z"/>
	<path d="M760.6,494.8h210.5v27.7H760.6V494.8z"/>
	<path d="M511.4,494.8h27.7v27.7h-27.7L511.4,494.8z"/>
	<path d="M688.6,494.8h27.7v27.7h-27.7V494.8z"/>
	<path d="M570.5,494.8h27.7v27.7h-27.7V494.8z"/>
	<path d="M629.5,494.8h27.7v27.7h-27.7V494.8z"/>
	<path d="M790.2,727.4H877v27.7h-86.8V727.4z"/>
	<path d="M913.8,727.4h59.1v27.7h-59.1V727.4z"/>
	<path d="M328.6,727.4h243.7v27.7H328.6V727.4z"/>
	<path d="M672,727.4h27.7v27.7H672V727.4z"/>
	<path d="M612.9,727.4h27.7v27.7h-27.7V727.4z"/>
	<path d="M731.1,727.4h27.7v27.7h-27.7V727.4z"/>
	<path d="M749.5,354.5l112.6-79.4l-110.8-81.2L734.8,216l81.2,57.2l-81.2,57.2L749.5,354.5z"/>
	<path d="M546.5,330.5l-81.2-59.1l81.2-57.2L529.8,192L419,271.4l110.8,81.2L546.5,330.5z"/>
	<path d="M696.1,129.7l24.7,12.4L584,414.3l-24.7-12.4L696.1,129.7z"/>
	<path d="M1203.7,1002.5v-12.9h-120V169.9c0-68.3-55.4-123.7-123.7-125.5H132.9h-11.1C51.7,44.3-3.7,101.6-3.7,169.9v42.5h223.4
		V1032c0,70.2,57.2,125.5,125.5,125.5h1.8h749.5c62.8,0,108.9-49.8,108.9-116.3C1205.5,1030.2,1203.7,1002.5,1203.7,1002.5
		L1203.7,1002.5z M24,184.7V168c0-53.5,44.3-97.8,97.8-97.8s97.8,44.3,97.8,97.8v14.8H24V184.7z M345.2,1129.9
		c-53.5,0-97.8-44.3-97.8-97.8V168c0-40.6-18.5-75.7-48-97.8h758.8c53.5,0,97.8,44.3,97.8,97.8v819.7H456l-20.3,3.7l3.7,14.8
		c1.8,7.4,3.7,18.5,3.7,25.8C443.1,1085.6,398.8,1129.9,345.2,1129.9L345.2,1129.9z M1094.8,1129.9h-672c29.5-22.2,48-59.1,48-97.8
		c0-3.7,0-9.2-1.8-14.8h707v25.8C1177.8,1093,1142.8,1129.9,1094.8,1129.9L1094.8,1129.9z"/>
</g>
</svg>
